<svg width="12" height="20" viewBox="0 0 12 20" fill="none" xmlns="http://www.w3.org/2000/svg">
<path d="M4.75751 10L10.9525 3.80502C11.2784 3.47713 11.4614 3.03359 11.4614 2.57127C11.4614 2.10894 11.2784 1.6654 10.9525 1.33752C10.7898 1.17349 10.5963 1.0433 10.383 0.954457C10.1698 0.865611 9.94103 0.81987 9.71 0.81987C9.47898 0.81987 9.25025 0.865611 9.037 0.954457C8.82374 1.0433 8.63019 1.17349 8.46751 1.33752L1.04751 8.75752C0.883487 8.9202 0.753298 9.11375 0.664453 9.32701C0.575608 9.54026 0.529865 9.76899 0.529865 10C0.529865 10.231 0.575608 10.4598 0.664453 10.673C0.753298 10.8863 0.883487 11.0798 1.04751 11.2425L8.46751 18.75C8.63103 18.9122 8.82495 19.0405 9.03817 19.1276C9.25138 19.2147 9.47969 19.2588 9.71 19.2575C9.94032 19.2588 10.1686 19.2147 10.3818 19.1276C10.5951 19.0405 10.789 18.9122 10.9525 18.75C11.2784 18.4221 11.4614 17.9786 11.4614 17.5163C11.4614 17.0539 11.2784 16.6104 10.9525 16.2825L4.75751 10Z" fill="#FF5678"/>
</svg>
